<svg>
  <symbol fill="none" xmlns="http://www.w3.org/2000/svg" viewBox="0 0 20 20" id="cart">
    <path
      d="M7.54548 18.1818C7.99735 18.1818 8.36366 17.8155 8.36366 17.3636C8.36366 16.9118 7.99735 16.5455 7.54548 16.5455C7.09361 16.5455 6.72729 16.9118 6.72729 17.3636C6.72729 17.8155 7.09361 18.1818 7.54548 18.1818Z"
      stroke="#9B9B9B" stroke-width="2" stroke-linecap="round" stroke-linejoin="round"></path>
    <path
      d="M16.5455 18.1818C16.9973 18.1818 17.3637 17.8155 17.3637 17.3636C17.3637 16.9118 16.9973 16.5455 16.5455 16.5455C16.0936 16.5455 15.7273 16.9118 15.7273 17.3636C15.7273 17.8155 16.0936 18.1818 16.5455 18.1818Z"
      stroke="#9B9B9B" stroke-width="2" stroke-linecap="round" stroke-linejoin="round"></path>
    <path
      d="M1 1H4.27273L6.46545 11.9555C6.54027 12.3321 6.7452 12.6705 7.04436 12.9113C7.34351 13.1522 7.71784 13.2801 8.10182 13.2727H16.0545C16.4385 13.2801 16.8129 13.1522 17.112 12.9113C17.4112 12.6705 17.6161 12.3321 17.6909 11.9555L19 5.09091H5.09091"
      stroke="#9B9B9B" stroke-width="2" stroke-linecap="round" stroke-linejoin="round"></path>
  </symbol>
  <symbol fill="none" xmlns="http://www.w3.org/2000/svg" viewBox="0 0 22 19" id="favorite">
    <path
      d="M15.1003 0C16.7293 0 18.0976 0.54932 19.2052 1.64796C20.3129 2.7466 20.8668 4.08759 20.8668 5.67092C20.8668 6.44643 20.7039 7.23002 20.3781 8.02169C20.0523 8.81335 19.6939 9.51616 19.303 10.1301C18.912 10.7441 18.2523 11.5357 17.3238 12.5051C16.3953 13.4745 15.6134 14.2581 14.9781 14.8559C14.3428 15.4537 13.3248 16.3665 11.9239 17.5944L10.4089 18.9515L8.89403 17.6429C7.52572 16.3827 6.51577 15.4537 5.8642 14.8559C5.21262 14.2581 4.42258 13.4745 3.49408 12.5051C2.56559 11.5357 1.90586 10.7441 1.51492 10.1301C1.12397 9.51616 0.773748 8.81335 0.464249 8.02169C0.15475 7.23002 0 6.44643 0 5.67092C0 4.08759 0.553841 2.7466 1.66152 1.64796C2.7692 0.54932 4.12123 0 5.71759 0C7.60717 0 9.17095 0.727041 10.4089 2.18112C11.6469 0.727041 13.2107 0 15.1003 0ZM10.5067 16.0918C12.1031 14.6701 13.2677 13.6118 14.0008 12.9171C14.7338 12.2224 15.5401 11.3903 16.4198 10.4209C17.2994 9.45153 17.9102 8.60332 18.2523 7.87628C18.5944 7.14924 18.7654 6.41412 18.7654 5.67092C18.7654 4.63691 18.4152 3.78061 17.7148 3.10204C17.0143 2.42347 16.1428 2.08418 15.1003 2.08418C14.3184 2.08418 13.5772 2.31037 12.8768 2.76276C12.1764 3.21514 11.6795 3.79677 11.3863 4.50765H9.43158C9.17095 3.79677 8.69041 3.21514 7.98997 2.76276C7.28952 2.31037 6.53206 2.08418 5.71759 2.08418C4.67507 2.08418 3.81173 2.42347 3.12757 3.10204C2.44342 3.78061 2.10134 4.63691 2.10134 5.67092C2.10134 6.41412 2.26423 7.14924 2.59002 7.87628C2.91581 8.60332 3.52666 9.45153 4.42258 10.4209C5.3185 11.3903 6.13297 12.2224 6.866 12.9171C7.59902 13.6118 8.74743 14.6701 10.3112 16.0918L10.4089 16.1888L10.5067 16.0918Z"
      fill="#9B9B9B"></path>
  </symbol>
  <symbol fill="none" xmlns="http://www.w3.org/2000/svg" viewBox="0 0 20 20" id="profile">
    <path fill-rule="evenodd" clip-rule="evenodd"
      d="M0 10C0 4.579 4.579 0 10 0C15.421 0 20 4.579 20 10C20 13.19 18.408 16.078 16 17.924V18H15.898C14.23 19.245 12.187 20 10 20C7.813 20 5.77 19.245 4.102 18H4V17.924C1.592 16.078 0 13.189 0 10ZM7.12347 15.236C6.59154 15.6639 6.22136 16.2604 6.074 16.927C7.242 17.604 8.584 18 10 18C11.416 18 12.758 17.604 13.926 16.927C13.7785 16.2605 13.4082 15.6641 12.8764 15.2362C12.3445 14.8083 11.6827 14.5744 11 14.573H9C8.3173 14.5742 7.6554 14.808 7.12347 15.236ZM13.7677 13.4117C14.5877 13.9574 15.2286 14.7329 15.61 15.641C17.077 14.182 18 12.176 18 10C18 5.663 14.337 2 10 2C5.663 2 2 5.663 2 10C2 12.176 2.923 14.182 4.39 15.641C4.77144 14.7329 5.41227 13.9574 6.23227 13.4117C7.05227 12.866 8.01501 12.5742 9 12.573H11C11.985 12.5742 12.9477 12.866 13.7677 13.4117ZM6 8C6 5.72 7.72 4 10 4C12.28 4 14 5.72 14 8C14 10.28 12.28 12 10 12C7.72 12 6 10.28 6 8ZM8 8C8 9.178 8.822 10 10 10C11.178 10 12 9.178 12 8C12 6.822 11.178 6 10 6C8.822 6 8 6.822 8 8Z"
      fill="#9B9B9B"></path>
  </symbol>
  <symbol fill="none" xmlns="http://www.w3.org/2000/svg" viewBox="0 0 15.9578 15.9565" id="search">
    <path
      d="M11.8855 11.8795L15.25 15.25L11.8855 11.8795ZM11.8828 11.8828C10.6873 13.0783 9.06573 13.75 7.375 13.75C5.68427 13.75 4.06274 13.0783 2.86719 11.8828C1.67163 10.6873 1 9.06577 1 7.375C1 5.68423 1.67163 4.06274 2.86719 2.86719C4.06274 1.67166 5.68427 1 7.375 1C9.06573 1 10.6873 1.67166 11.8828 2.86719C13.0784 4.06274 13.75 5.68423 13.75 7.375C13.75 9.06577 13.0784 10.6873 11.8828 11.8828Z"
      stroke="#E4E4E4" stroke-opacity="1.000000" stroke-width="2.000000" />
  </symbol>
  <symbol fill="none" viewBox="0 0 11 11" xmlns="http://www.w3.org/2000/svg" id="plus">
    <path
      d="M9.99857 4.46454L6.53543 4.46454L6.53543 1.00153C6.53543 -0.333862 4.46443 -0.333862 4.46443 1.00153L4.46443 4.46454L1.0013 4.46454C-0.333771 4.46454 -0.333771 6.53546 1.0013 6.53546L4.46443 6.53546L4.46443 9.99847C4.46443 11.3339 6.53543 11.3339 6.53543 9.99847L6.53543 6.53546L9.99857 6.53546C11.3338 6.53546 11.3338 4.46454 9.99857 4.46454Z"
      fill="#D3D3D3" fill-opacity="1.000000" fill-rule="nonzero" />
  </symbol>
  <symbol fill="none" viewBox="0 0 14.4 12.8" xmlns="http://www.w3.org/2000/svg" id="product-favorite">
    <path
      d="M14.0516 2.62311C13.8282 2.1098 13.506 1.64462 13.1032 1.25366C12.7 0.861542 12.2247 0.549927 11.703 0.335754C11.1621 0.112793 10.5819 -0.00131226 9.99615 0C9.17439 0 8.37263 0.223297 7.67588 0.64502C7.50919 0.745911 7.35084 0.85672 7.20082 0.977478C7.05081 0.85672 6.89246 0.745911 6.72577 0.64502C6.02902 0.223297 5.22726 0 4.4055 0C3.81377 0 3.24037 0.112488 2.69864 0.335754C2.17525 0.550751 1.70353 0.860046 1.29848 1.25366C0.895098 1.6442 0.572863 2.10947 0.35004 2.62311C0.118347 3.15732 0 3.72461 0 4.30844C0 4.85919 0.113346 5.43311 0.338371 6.01691C0.526728 6.50482 0.796759 7.01093 1.1418 7.52197C1.68853 8.33072 2.44028 9.17422 3.37372 10.0293C4.92056 11.4467 6.45241 12.4258 6.51741 12.4655L6.91246 12.7169C7.08748 12.8277 7.3125 12.8277 7.48752 12.7169L7.88257 12.4655C7.94758 12.4242 9.47775 11.4467 11.0263 10.0293C11.9597 9.17422 12.7115 8.33072 13.2582 7.52197C13.6032 7.01093 13.8749 6.50482 14.0616 6.01691C14.2866 5.43311 14.4 4.85919 14.4 4.30844C14.4016 3.72461 14.2833 3.15732 14.0516 2.62311Z"
      fill="#FF8585" fill-opacity="1.000000" fill-rule="nonzero" />
  </symbol>
  <symbol fill="none" viewBox="0 0 10.6698 10.5132" xmlns="http://www.w3.org/2000/svg" id="success">
    <defs>
      <filter id="filter_60_204_dd" x="0.000000" y="0.000000" width="10.669769" height="10.513245"
        filterUnits="userSpaceOnUse" color-interpolation-filters="sRGB">
        <feFlood flood-opacity="0" result="BackgroundImageFix" />
        <feColorMatrix in="SourceAlpha" type="matrix" values="0 0 0 0 0 0 0 0 0 0 0 0 0 0 0 0 0 0 127 0"
          result="hardAlpha" />
        <feOffset dx="0" dy="2" />
        <feGaussianBlur stdDeviation="0" />
        <feComposite in2="hardAlpha" operator="out" k2="-1" k3="1" />
        <feColorMatrix type="matrix" values="0 0 0 0 0 0 0 0 0 0 0 0 0 0 0 0 0 0 0.1 0" />
        <feBlend mode="normal" in2="BackgroundImageFix" result="effect_dropShadow_1" />
        <feBlend mode="normal" in="SourceGraphic" in2="effect_dropShadow_1" result="shape" />
      </filter>
    </defs>
    <g filter="url(#filter_60_204_dd)">
      <path
        d="M8.99017 0.290833C9.17282 0.106506 9.42102 0.00195312 9.68054 0C9.94006 -0.00189209 10.1898 0.098999 10.3751 0.28064C10.5605 0.46228 10.6664 0.709961 10.6697 0.969421C10.673 1.22894 10.5735 1.47919 10.3928 1.66553L5.16617 8.19952C5.07639 8.2962 4.96802 8.37378 4.8476 8.42767C4.72714 8.48151 4.59708 8.51056 4.46518 8.51306C4.33325 8.51556 4.20218 8.49146 4.0798 8.44214C3.9574 8.39288 3.84622 8.3194 3.75284 8.2262L0.287506 4.76221C0.103363 4.57794 -6.10352e-05 4.32812 0 4.06763C6.10352e-05 3.80713 0.103607 3.55731 0.287842 3.37317C0.472076 3.18903 0.721924 3.08563 0.982422 3.08569C1.24289 3.08575 1.49268 3.18927 1.67685 3.37354L4.41751 6.11487L8.96417 0.321533C8.97244 0.310974 8.98132 0.300964 8.99084 0.291504L8.99017 0.290833Z"
        fill="#FFFFFF" fill-opacity="1.000000" fill-rule="nonzero" />
    </g>

  </symbol>
</svg>